<?xml version="1.0" ?>

<!-- Uploaded to: SVerator: SVG Repo Mixer Tools -->
<svg fill="#000000" width="800px" height="800px" viewBox="0 0 512 512" xmlns="http://www.w3.org/2000/svg">

<title/>

<g id="support_eco_campaign">

<path d="M501.14,187.21A134.57,134.57,0,0,0,408.89,61.79l.51-.41c10.4-8.84,15-23.26,13.54-42.85a7,7,0,0,0-6.48-6.48c-19.59-1.41-34,3.14-42.85,13.54a34.25,34.25,0,0,0-3.49,4.95,34.17,34.17,0,0,0-3.48-4.95c-8.84-10.4-23.26-14.95-42.85-13.54a7,7,0,0,0-6.48,6.48c-1.37,18.94,2.86,33,12.53,41.92a134,134,0,0,0-85,182.59,5.53,5.53,0,0,1-.17,4.73l-14.8,29.64a10.48,10.48,0,0,0,10.4,15.11l35.42-3.47a5.85,5.85,0,0,1,4.37,1.43,133.89,133.89,0,0,0,86.89,32.36h.38A133.85,133.85,0,0,0,501.14,187.21ZM384.28,34.66c4.94-5.82,13.31-8.79,24.91-8.86-.07,11.57-3,19.92-8.8,24.86-4.63,4-10.56,5.32-15.61,5.64-2-.27-4-.48-6.06-.65C378.35,50.06,378.81,41.09,384.28,34.66Zm57.36,200.76a15.69,15.69,0,0,1,9.75-28c.51,0,1,0,1.53.08A86.15,86.15,0,0,1,441.64,235.42Zm12.94-39.79a27.68,27.68,0,0,0-20,49.52c-1.42,1.7-2.9,3.35-4.45,4.93A86.12,86.12,0,0,1,368,276.32h-.24a87.12,87.12,0,0,1-70.92-37,25.86,25.86,0,0,0,14.94-23.35,24.88,24.88,0,0,0-.22-3.37,16.16,16.16,0,0,1,3.29-11.95,32.32,32.32,0,0,0-23.41-52.16A86.48,86.48,0,0,1,306,128.54a87.36,87.36,0,0,1,32.59-20.86,86.43,86.43,0,0,1,25.29-5c1.3-.06,2.64-.09,4-.09h.25A86.83,86.83,0,0,1,454.8,189.7C454.8,191.69,454.72,193.66,454.58,195.63Zm-155,18.5a13.27,13.27,0,0,1,.12,1.8,13.81,13.81,0,0,1-9.18,13A86.91,86.91,0,0,1,286,160.66a18.21,18.21,0,0,1,2.34-.26,20.34,20.34,0,0,1,17,32.82h0A28.22,28.22,0,0,0,299.61,214.13ZM339.92,50.71c-5.82-4.94-8.79-13.31-8.86-24.91,11.57.07,19.91,3,24.86,8.8,5.41,6.32,6,15.07,5.64,20.68-3,.13-6.07.37-9.07.7A24.58,24.58,0,0,1,339.92,50.71ZM453.13,272.64a118.84,118.84,0,0,1-85.81,36.2H367a119.89,119.89,0,0,1-77.8-29,20,20,0,0,0-13-4.85,16.92,16.92,0,0,0-1.88.1L245.23,278l12-23.94a19.51,19.51,0,0,0,.46-16.65A119.9,119.9,0,0,1,352.38,70.07a54.75,54.75,0,0,0,5.69.3c1.83,0,3.5-.09,5-.22V88.73a100.85,100.85,0,0,0,4.64,201.59H368a100.87,100.87,0,0,0,83.14-158A101,101,0,0,0,377,89V70.14c1.51.13,3.24.23,5.14.23l1.8,0c57.41,8.14,102.38,57.67,103.16,117A119.14,119.14,0,0,1,453.13,272.64Z"/>

<path d="M24.54,281.27H35.07v10.34a7,7,0,0,0,14,0V281.27H59.41a7,7,0,0,0,0-14H49.07V256.74a7,7,0,0,0-14,0v10.53H24.54a7,7,0,0,0,0,14Z"/>

<path d="M396,171.87a15.42,15.42,0,0,0-15.4,15.4,6,6,0,1,0,12,0,3.4,3.4,0,1,1,6.8,0,6,6,0,0,0,12,0A15.42,15.42,0,0,0,396,171.87Z"/>

<path d="M379.14,207.22a6,6,0,0,0-6,6,6.79,6.79,0,0,1-13.58,0,6,6,0,1,0-12,0,18.79,18.79,0,0,0,37.58,0A6,6,0,0,0,379.14,207.22Z"/>

<path d="M352.23,187.27a15.41,15.41,0,0,0-30.81,0,6,6,0,1,0,12,0,3.41,3.41,0,0,1,6.81,0,6,6,0,0,0,12,0Z"/>

<path d="M168.4,237.57a20.53,20.53,0,0,0-32.53-.65l-.07.09L57.92,337.59,38,352.32a23.57,23.57,0,0,0-6.87,29.84L15,394.05a8,8,0,0,0-1.67,11.19l18.41,24.91A8,8,0,0,0,43,431.82l15.87-11.73.13.18a23.4,23.4,0,0,0,15.44,9.28,21.71,21.71,0,0,0,3.31.26l54.19,68.29a7,7,0,0,0,9.76,1.19L166.52,480a7,7,0,0,0,1.22-9.86l-48.38-61.58,112-42.32.12,0a20.54,20.54,0,0,0,8.91-31.29ZM39.88,414.2l-8.9-12,7.84-5.8,8.89,12Zm43.3,0a9.53,9.53,0,0,1-13-2.25l-2.7-3.66-2-2.76a2.26,2.26,0,0,1-.13-.2l-18.41-24.9-.23-.28-2.39-3.23a9.54,9.54,0,0,1,2-13.34L61.8,352.12,99,402.49l-1.44,1.07L83.54,414Zm69.2,59.08L138.55,484l-11.39-14.35,13.41-11.39Zm-20.47-26-13.45,11.43L91.89,425.18l14.36-10.61Zm4.34-60L112,396.42h0l-8.61-11.64L72,342.32l45.52-58.8,55.32,74.83,8.71,11.78Zm93.91-38.31a6.48,6.48,0,0,1-3.83,4.27L195.13,365l-8.73-11.8L126.4,272l20.42-26.38a6.55,6.55,0,0,1,10.33.25l68.33,92.44,3.64,4.92A6.49,6.49,0,0,1,230.16,348.93Z"/>

</g>

</svg>