<svg width="100" height="75" viewBox="0 0 100 75" fill="none" xmlns="http://www.w3.org/2000/svg">
<path d="M57.1511 30.5225C55.0766 32.8579 53.2343 35.7099 51.822 38.7377C50.7363 34.4983 48.949 30.3599 46.7185 26.9177C48.8625 12.7322 42.7663 -2.41968 0 0.314356C11.6967 5.99354 10.704 42.6361 42.6876 34.8143C36.5914 19.6978 20.6528 9.36092 13.8157 6.57968C31.9272 13.102 41.2832 22.8318 45.7534 31.5439C48.1085 37.0304 49.6873 43.6327 48.7077 50.7976C37.4962 52.4655 28.7854 62.5637 28.2058 75.0078H75.7268C75.1052 61.6563 65.1263 51.0008 52.7373 50.5707C52.9497 48.9342 53.0153 47.2269 52.9052 45.4659C53.7313 41.3445 55.4228 37.6768 57.3701 34.5494C62.2664 27.7753 71.4126 20.7704 87.5362 17.5984C81.4073 19.0631 66.6265 25.7336 59.5363 37.7044C85.5182 48.4228 89.3996 17.3755 100 14.0894C64.2648 6.27808 57.1695 18.2764 57.1511 30.5225Z" fill="#2BAE7A"/>
</svg>
