<svg width="999" height="999" viewBox="0 0 999 999" fill="none" xmlns="http://www.w3.org/2000/svg">
<g clip-path="url(#clip0_140_297)">
<g clip-path="url(#clip1_140_297)">
<g clip-path="url(#clip2_140_297)">
<path d="M533.177 466.641C523.408 477.639 514.731 491.07 508.081 505.329C502.967 485.364 494.551 465.875 484.046 449.665C494.143 382.861 465.434 311.505 264.033 324.381C319.117 351.126 314.442 523.688 465.064 486.853C436.355 415.664 361.294 366.984 329.096 353.886C414.389 384.602 458.45 430.423 479.501 471.451C490.592 497.289 498.027 528.381 493.414 562.123C440.616 569.978 399.593 617.534 396.864 676.137H620.656C617.729 613.261 570.735 563.08 512.391 561.055C513.391 553.348 513.7 545.308 513.181 537.014C517.072 517.605 525.038 500.333 534.208 485.605C557.267 453.704 600.339 420.715 676.271 405.777C647.407 412.675 577.799 444.089 544.41 500.463C666.767 550.94 685.046 404.727 734.967 389.252C566.678 352.466 533.263 408.97 533.177 466.641Z" fill="#2BAE7A"/>
</g>
</g>
<path d="M69.2893 306.525L95.4035 315.493C95.7214 316.543 96.0214 318.329 96.3035 320.85C96.6071 323.382 96.5107 326.7 96.0143 330.807C95.5 334.882 94.2607 339.793 92.2857 345.536C89.625 353.282 86.0643 359.511 81.6071 364.211C77.1178 368.929 71.4893 371.796 64.7214 372.814C57.9714 373.861 49.8571 372.757 40.3821 369.504C27.8035 365.186 19.2036 358.618 14.5857 349.807C9.96784 340.996 9.63926 330.825 13.6 319.296C15.4928 313.789 17.5357 309.586 19.7286 306.686C21.9071 303.757 24.0035 301.682 26.0107 300.468C27.9893 299.268 29.6178 298.511 30.9 298.196C31.3857 298.075 31.7964 298.021 32.1321 298.032C32.475 298.018 32.9678 298.111 33.6036 298.304C34.4821 298.475 35.7285 298.879 37.3393 299.507C38.9321 300.107 40.3143 300.725 41.4786 301.357C42.225 301.771 42.6571 302.179 42.7785 302.586C42.8714 302.775 42.9143 303.064 42.9107 303.454C42.8821 303.836 42.75 304.379 42.5071 305.079C42.1143 306.221 41.625 307.529 41.0464 308.996C40.4393 310.457 39.9571 311.518 39.6 312.179C39.1643 312.993 38.7571 313.532 38.3786 313.796C37.9714 314.075 37.4143 314.325 36.7107 314.554C36 314.804 35.1428 315.164 34.15 315.629C33.125 316.111 32.05 316.996 30.9321 318.282C29.8286 319.6 28.8214 321.575 27.9143 324.211C25.9107 330.046 26.4393 335.339 29.5035 340.096C32.5893 344.861 38.0893 348.6 46 351.321C54.2857 354.168 61.1785 354.604 66.6821 352.629C72.1535 350.671 76 346.461 78.2214 340C79.3357 336.757 79.925 334.282 79.9857 332.582C80.0178 330.896 79.9928 329.793 79.9107 329.268L63.4214 323.607C62.4178 323.264 61.7071 322.821 61.2928 322.289C59.5036 319.9 57.8143 316.843 56.225 313.114C55.9893 312.432 55.9393 311.893 56.075 311.496C56.2178 311.075 56.5786 310.718 57.15 310.418C59.0178 309.311 60.7393 308.439 62.3107 307.807C63.8928 307.15 65.3893 306.632 66.7964 306.257C67.475 306.1 68.3071 306.189 69.2893 306.525Z" fill="#2BAE7A"/>
<path d="M71.9 262.725L75.5643 264.661L75.6678 264.464C70.0964 258.368 69.0143 252.104 72.4143 245.668C72.8536 244.839 73.2536 244.186 73.6143 243.707C73.9786 243.229 74.25 242.9 74.4321 242.714C74.8607 242.325 75.3678 242.289 75.9571 242.6L87.8714 248.893C88.8964 249.436 88.8678 250.175 87.7893 251.111C87.4071 251.411 86.9321 251.886 86.3643 252.536C85.7964 253.186 85.1643 254.175 84.4607 255.507C82.6643 258.911 82.5071 262.218 83.9893 265.429C85.4607 268.661 88.3464 271.414 92.6464 273.686L114.214 285.079C115.196 285.596 115.775 286.168 115.946 286.789C116.1 287.4 115.914 288.196 115.396 289.179L110.004 299.389C109.486 300.371 108.932 300.971 108.339 301.189C107.729 301.396 106.932 301.239 105.95 300.721L64.4857 278.818C63.6786 278.393 63.1536 277.904 62.9107 277.357C62.3428 276.164 61.8464 274.829 61.4286 273.35C60.975 271.882 60.5786 270.154 60.2357 268.161C60.1786 267.796 60.1857 267.464 60.2607 267.168C60.3464 266.85 60.4393 266.593 60.5428 266.396C60.7857 265.939 61.1893 265.568 61.7571 265.279C65.3357 263.682 68.1786 262.739 70.2821 262.457C70.8357 262.361 71.375 262.45 71.9 262.725Z" fill="#2BAE7A"/>
<path d="M150.75 236.918C147.093 242.036 143.071 245.896 138.696 248.504C134.339 251.121 129.661 252.236 124.661 251.846C119.675 251.439 114.421 249.261 108.904 245.314C100.614 239.389 95.8714 232.786 94.675 225.5C93.4464 218.221 95.35 211.061 100.386 204.014C103.657 199.436 107.239 196.143 111.132 194.136C115.046 192.139 119.043 191.343 123.125 191.743C127.171 192.15 131.054 193.679 134.764 196.332C138.379 198.914 140.236 201.639 140.343 204.504C140.446 207.368 139.232 210.579 136.693 214.132L122.725 233.675C126.029 235.671 129.225 236.229 132.314 235.343C135.425 234.471 138.243 232.268 140.768 228.736C142.761 225.946 143.939 223.407 144.3 221.118C144.682 218.843 144.868 217.204 144.861 216.196C144.836 215.3 145.1 214.504 145.661 213.807C146.079 213.225 146.782 212.471 147.775 211.546C148.775 210.654 149.957 209.893 151.321 209.257C152.268 208.782 153.082 208.786 153.768 209.275C154.168 209.561 154.675 210.043 155.282 210.721C155.646 211.104 156.161 211.7 156.825 212.507C157.486 213.282 158.032 214.082 158.471 214.914C158.682 215.339 158.796 215.861 158.811 216.475C158.804 217.379 158.668 218.754 158.411 220.6C158.139 222.468 157.429 224.75 156.286 227.454C155.164 230.168 153.318 233.325 150.75 236.918ZM113.325 227.093L123.936 212.25C125.039 210.704 124.879 209.421 123.454 208.404C121.307 206.868 119.007 206.243 116.564 206.525C114.139 206.821 111.957 208.325 110.018 211.036C107.907 213.986 107.311 216.818 108.221 219.532C109.1 222.25 110.8 224.771 113.325 227.093Z" fill="#2BAE7A"/>
<path d="M194.875 186.232C190.471 190.725 185.904 193.921 181.175 195.818C176.464 197.732 171.671 198.111 166.793 196.957C161.932 195.786 157.075 192.821 152.232 188.071C144.954 180.939 141.289 173.682 141.229 166.3C141.136 158.921 144.121 152.139 150.186 145.953C154.125 141.936 158.171 139.236 162.329 137.85C166.504 136.482 170.575 136.311 174.546 137.336C178.482 138.361 182.082 140.471 185.339 143.664C188.511 146.775 189.929 149.75 189.589 152.6C189.25 155.446 187.554 158.432 184.496 161.55L167.682 178.703C170.639 181.186 173.711 182.228 176.9 181.832C180.107 181.45 183.229 179.711 186.271 176.607C188.671 174.157 190.229 171.828 190.939 169.625C191.668 167.436 192.107 165.843 192.254 164.85C192.368 163.961 192.754 163.214 193.407 162.614C193.907 162.103 194.721 161.468 195.85 160.703C196.979 159.978 198.261 159.407 199.704 158.989C200.711 158.664 201.518 158.796 202.118 159.386C202.471 159.732 202.893 160.286 203.389 161.046C203.689 161.478 204.107 162.146 204.639 163.05C205.171 163.918 205.589 164.793 205.896 165.682C206.039 166.136 206.071 166.668 205.989 167.275C205.843 168.168 205.496 169.503 204.957 171.293C204.4 173.096 203.346 175.243 201.804 177.736C200.275 180.246 197.964 183.078 194.875 186.232ZM159.411 170.753L172.186 157.721C173.514 156.364 173.554 155.071 172.304 153.846C170.418 152 168.246 151.025 165.782 150.928C163.339 150.85 160.95 151.996 158.621 154.375C156.082 156.964 155.054 159.671 155.536 162.493C155.982 165.314 157.275 168.068 159.411 170.753Z" fill="#2BAE7A"/>
<path d="M246.057 96.9392L265.582 123.146C266.246 124.036 266.521 124.8 266.411 125.436C266.286 126.053 265.779 126.693 264.889 127.357L255.629 134.257C254.739 134.921 253.979 135.225 253.354 135.168C252.711 135.093 252.061 134.607 251.396 133.718L233.593 109.825C231.175 106.578 228.725 104.714 226.239 104.228C223.732 103.757 221.304 104.396 218.95 106.15C216.575 107.918 215.139 109.789 214.639 111.764C214.125 113.718 214.104 115.732 214.575 117.811L235.339 145.682C236.004 146.571 236.279 147.336 236.168 147.971C236.043 148.589 235.536 149.228 234.643 149.889L225.386 156.789C224.496 157.453 223.736 157.757 223.107 157.7C222.464 157.625 221.814 157.139 221.15 156.25L193.132 118.646C192.586 117.914 192.321 117.25 192.339 116.653C192.339 115.332 192.468 113.914 192.725 112.396C192.946 110.878 193.332 109.143 193.882 107.196C194.057 106.603 194.321 106.175 194.675 105.911C195.011 105.661 195.496 105.528 196.136 105.518C198.118 105.578 199.896 105.714 201.471 105.925C203.025 106.153 204.511 106.493 205.925 106.946L206.132 106.793C206.161 105.757 206.357 104.411 206.725 102.753C207.071 101.111 207.914 99.2678 209.25 97.2213C210.575 95.157 212.671 93.057 215.539 90.9213C218.35 88.8285 221.45 87.3928 224.843 86.6213C228.232 85.882 231.746 86.2463 235.396 87.7106C239.025 89.1928 242.579 92.2678 246.057 96.9392Z" fill="#2BAE7A"/>
<path d="M365.896 45.2927L375.946 71.0106C375.354 71.932 374.186 73.3141 372.439 75.1606C370.707 77.0284 368.111 79.1034 364.657 81.382C361.218 83.6284 356.668 85.8534 351.018 88.0641C343.389 91.0463 336.336 92.357 329.864 91.9963C323.361 91.6249 317.532 89.1856 312.382 84.682C307.218 80.2106 302.811 73.307 299.164 63.9748C294.325 51.5856 293.771 40.782 297.507 31.5606C301.243 22.3391 308.786 15.5106 320.139 11.0748C325.564 8.95699 330.089 7.79628 333.721 7.59628C337.368 7.36413 340.3 7.62128 342.529 8.36771C344.721 9.09985 346.354 9.85342 347.425 10.6284C347.832 10.9213 348.139 11.1963 348.346 11.4606C348.579 11.7141 348.825 12.1463 349.093 12.757C349.532 13.5391 350.029 14.7498 350.589 16.3856C351.164 17.9891 351.586 19.4391 351.854 20.7391C352.021 21.5748 351.989 22.1713 351.754 22.5248C351.668 22.7177 351.479 22.9356 351.179 23.1856C350.871 23.4106 350.371 23.6606 349.682 23.932C348.557 24.3713 347.243 24.8463 345.746 25.3498C344.239 25.832 343.118 26.1498 342.386 26.307C341.482 26.4998 340.807 26.5391 340.364 26.4213C339.889 26.2891 339.336 26.0284 338.707 25.6356C338.054 25.2534 337.229 24.8356 336.229 24.3784C335.196 23.907 333.829 23.6606 332.125 23.6391C330.407 23.6498 328.25 24.1606 325.65 25.1748C319.904 27.4213 316.207 31.2499 314.561 36.6606C312.921 42.0963 313.625 48.707 316.671 56.4998C319.861 64.657 323.986 70.1999 329.046 73.1213C334.079 76.0284 339.775 76.2391 346.143 73.7534C349.336 72.5034 351.604 71.3534 352.939 70.3034C354.243 69.2356 355.071 68.5034 355.418 68.1034L349.071 51.8677C348.686 50.8784 348.561 50.0534 348.7 49.3891C349.364 46.482 350.604 43.2141 352.421 39.5891C352.789 38.9677 353.168 38.582 353.561 38.432C353.975 38.2713 354.482 38.3106 355.079 38.5534C357.129 39.2606 358.907 40.0106 360.407 40.8034C361.932 41.5856 363.293 42.3927 364.489 43.2213C365.05 43.6391 365.518 44.3284 365.896 45.2927Z" fill="#2BAE7A"/>
<path d="M401.004 18.9679L401.893 23.0179L402.111 22.9679C403.161 14.7786 407.239 9.90002 414.35 8.33216C415.264 8.12859 416.025 8.0143 416.621 7.98216C417.221 7.95002 417.65 7.94645 417.907 7.9643C418.479 8.0393 418.839 8.40359 418.979 9.05359L421.879 22.2107C422.129 23.3429 421.546 23.8 420.136 23.5822C419.661 23.4857 418.989 23.4286 418.129 23.4179C417.268 23.4072 416.1 23.5607 414.632 23.8857C410.871 24.7143 408.246 26.7322 406.757 29.9429C405.243 33.1572 405.007 37.1393 406.054 41.8857L411.304 65.7036C411.543 66.7893 411.482 67.5964 411.118 68.1322C410.75 68.6429 410.025 69.0179 408.943 69.2572L397.664 71.7429C396.579 71.9822 395.764 71.9464 395.214 71.6393C394.661 71.3072 394.264 70.5964 394.029 69.5107L383.932 23.7179C383.736 22.825 383.768 22.1107 384.029 21.5714C384.571 20.3643 385.271 19.125 386.125 17.85C386.95 16.5572 388.014 15.1357 389.318 13.5857C389.561 13.3036 389.818 13.0964 390.089 12.9607C390.386 12.8179 390.643 12.725 390.861 12.675C391.368 12.5643 391.914 12.6322 392.496 12.8857C396.029 14.5822 398.582 16.1429 400.161 17.5607C400.593 17.9214 400.875 18.3893 401.004 18.9679Z" fill="#2BAE7A"/>
<path d="M470.886 62.7499C461.511 63.4606 453.893 61.5249 448.029 56.9463C442.189 52.3892 438.896 45.1785 438.15 35.3106C437.386 25.1999 439.654 17.4178 444.954 11.9678C450.236 6.54276 457.621 3.47133 467.121 2.75347C476.275 2.06062 483.782 3.96776 489.639 8.47133C495.525 12.9999 498.832 20.0606 499.561 29.657C500.318 39.6463 498.139 47.482 493.025 53.1678C487.936 58.8249 480.557 62.0178 470.886 62.7499ZM470.418 49.1999C474.504 48.8892 477.493 47.3785 479.389 44.6606C481.264 41.9713 481.968 37.5356 481.5 31.3606C481.054 25.4785 479.696 21.4142 477.421 19.1606C475.125 16.9356 471.921 15.9785 467.814 16.2892C463.829 16.5928 460.789 18.1213 458.696 20.8749C456.604 23.632 455.779 27.9142 456.214 33.7213C456.671 39.7749 458.079 43.9499 460.432 46.2428C462.807 48.5356 466.136 49.5213 470.418 49.1999Z" fill="#2BAE7A"/>
<path d="M526.411 57.45C525.536 55.6535 524.671 53.1857 523.811 50.0464C522.954 46.9071 522.157 43.4428 521.432 39.65C520.679 35.8535 520.036 32.0714 519.5 28.3C518.968 24.5321 518.593 21.0928 518.379 17.9857C518.164 14.8535 518.164 12.4142 518.379 10.675C518.468 9.93925 518.739 9.35353 519.193 8.91068C521.164 7.01425 523.871 5.10711 527.311 3.19282C527.893 2.89282 528.407 2.76782 528.85 2.82139C529.339 2.88211 529.818 3.12496 530.286 3.55711C531.85 4.99282 533.143 6.31782 534.164 7.53568C535.207 8.75711 536.071 9.93211 536.754 11.0607C537.111 11.6 537.236 12.3142 537.125 13.1964L537.161 12.9C536.879 15.2035 536.689 17.875 536.589 20.9214C536.518 23.9464 536.543 27.0821 536.668 30.3285C536.793 33.575 537.032 36.6857 537.389 39.6642C537.771 42.6428 538.275 45.2285 538.9 47.4214L539.232 47.4607C540.468 45.5 541.814 42.9178 543.275 39.7142C544.761 36.5142 546.221 33.1142 547.657 29.5107C549.093 25.9071 550.404 22.5 551.593 19.2928C552.779 16.1071 553.661 13.5678 554.239 11.675C554.661 10.2607 555.354 9.36425 556.321 8.98211C557.286 8.62853 558.586 8.54996 560.229 8.75353L566.657 9.53925C568.518 9.76782 569.807 10.2 570.525 10.8357C571.264 11.4964 571.639 12.4892 571.654 13.8071C571.7 15.85 571.911 18.6107 572.279 22.0857C572.65 25.5607 573.089 29.2571 573.607 33.175C574.125 37.0678 574.686 40.7142 575.286 44.1178C575.886 47.5464 576.418 50.1964 576.886 52.0714L577.289 52.1214C578.693 49.8071 580.132 46.775 581.611 43.0285C583.089 39.2821 584.411 35.2928 585.575 31.0607C586.711 26.85 587.507 22.8964 587.961 19.1964L587.932 19.4178C588.039 18.5357 588.321 17.875 588.771 17.4321C589.729 16.5071 590.85 15.575 592.136 14.6357C593.418 13.7 594.957 12.7178 596.746 11.6964C597.307 11.3928 597.807 11.2678 598.246 11.3214C598.761 11.3857 599.214 11.625 599.611 12.0464C601.125 13.475 602.393 14.8 603.414 16.0178C604.432 17.2357 605.286 18.4107 605.964 19.5357C606.271 20.0714 606.375 20.7428 606.279 21.55C606.032 23.3607 605.393 25.7285 604.364 28.6642C603.336 31.5964 602.046 34.7928 600.504 38.2571C598.961 41.7214 597.321 45.1642 595.586 48.5821C593.821 52.0214 592.082 55.1642 590.368 58.0107C588.654 60.8321 587.114 63.0678 585.743 64.7143C584.846 65.7464 584.089 66.5393 583.475 67.0857C582.839 67.6035 582.121 67.9 581.314 67.975C580.482 68.0714 579.293 68.025 577.754 67.8393L571.471 67.0678C569.732 66.8535 568.404 66.4428 567.482 65.8357C566.539 65.2 565.757 63.9821 565.132 62.1928C564.739 61.125 564.311 59.3714 563.839 56.925C563.393 54.4821 562.946 51.8178 562.504 48.9321C562.089 46.0214 561.725 43.3178 561.411 40.8178C561.121 38.2964 560.964 36.45 560.932 35.2785C560.871 34.1535 560.839 32.7821 560.839 31.1642C560.814 29.5464 560.821 28.2642 560.861 27.325L560.604 27.2928C560.439 28.2178 560.164 29.45 559.779 30.9964C559.389 32.5392 559.014 33.8857 558.65 35.0357C558.3 36.0607 557.689 37.6142 556.811 39.6928C555.957 41.8 554.954 44.1 553.804 46.5964C552.65 49.1142 551.468 51.5571 550.261 53.9178C549.05 56.3035 547.932 58.3178 546.911 59.9607C545.871 61.55 544.793 62.5357 543.675 62.9214C542.561 63.2821 540.868 63.325 538.589 63.0428L532.125 62.25C530.314 62.0285 529.121 61.5964 528.554 60.9571C527.957 60.3357 527.243 59.1678 526.411 57.45ZM518.35 10.8964L518.393 10.5642L518.379 10.675C518.368 10.75 518.361 10.8214 518.35 10.8964ZM606.293 21.4392L606.264 21.6607L606.279 21.55C606.286 21.5 606.289 21.4642 606.293 21.4392Z" fill="#2BAE7A"/>
<path d="M635.171 82.9069C623.232 79.2569 619.157 71.2355 622.946 58.8462L630.621 33.7534L624.604 31.9141C623.518 31.5819 622.843 31.1319 622.579 30.5569C622.289 29.9784 622.311 29.1569 622.636 28.0962L624.65 21.5141C624.982 20.4284 625.425 19.7391 625.979 19.4426C626.518 19.1176 627.329 19.1212 628.414 19.4534L634.432 21.2927L637.071 12.6569C637.332 11.8069 637.721 11.2034 638.246 10.8498C640.332 9.34622 643.175 7.89265 646.779 6.49265C647.382 6.28908 647.871 6.24622 648.25 6.36051C648.7 6.49622 649.082 6.80694 649.396 7.29265C650.568 8.94265 651.518 10.4426 652.236 11.7998C652.979 13.1641 653.579 14.4569 654.032 15.6784C654.243 16.2569 654.218 16.9748 653.957 17.8212L651.314 26.4569L660.764 29.3498C661.85 29.6819 662.525 30.1319 662.789 30.7034C663.086 31.2569 663.064 32.0784 662.732 33.1641L660.718 39.7462C660.393 40.8069 659.95 41.4998 659.389 41.8176C658.85 42.1426 658.039 42.1391 656.954 41.8069L647.504 38.9177L640.729 61.0712C638.982 66.7819 640.175 70.2676 644.3 71.5319C644.936 71.7284 645.546 71.8498 646.125 71.8962C646.711 71.9212 647.214 71.9212 647.636 71.8926C648.479 71.8391 649.039 71.8962 649.325 72.0641C649.611 72.2284 649.761 72.6998 649.782 73.4784L650.354 82.7498C650.411 83.7462 650.004 84.3212 649.132 84.4676C648.511 84.5605 647.068 84.6355 644.804 84.6927C642.536 84.7712 639.321 84.1784 635.171 82.9069Z" fill="#2BAE7A"/>
<path d="M693.586 64.107L679.171 95.732C678.711 96.7427 678.175 97.3534 677.564 97.5605C676.964 97.7463 676.157 97.6105 675.146 97.1534L664.639 92.3605C663.629 91.8998 662.996 91.382 662.743 90.807C662.5 90.207 662.611 89.4034 663.071 88.3927L694.482 19.4891C694.85 18.682 695.307 18.1284 695.846 17.832C698.132 16.6248 701.143 15.5534 704.871 14.6248C705.496 14.5034 706 14.5284 706.382 14.7034C706.832 14.907 707.182 15.2713 707.432 15.7927C708.379 17.582 709.121 19.1927 709.661 20.632C710.221 22.082 710.646 23.4391 710.932 24.7105C711.064 25.3141 710.946 26.0177 710.579 26.8248L699.325 51.5105L699.529 51.6034C700.711 50.9748 702.125 50.4284 703.775 49.9605C705.425 49.4927 707.404 49.3784 709.711 49.6141C711.993 49.8427 714.686 50.6605 717.782 52.0748C720.904 53.4963 723.607 55.5034 725.9 58.0927C728.204 60.7141 729.568 63.9677 729.993 67.8498C730.443 71.7427 729.461 76.3391 727.043 81.6355L713.489 111.375C713.029 112.386 712.493 112.996 711.882 113.203C711.282 113.389 710.475 113.253 709.464 112.796L698.957 108.007C697.946 107.546 697.314 107.028 697.064 106.45C696.821 105.85 696.932 105.046 697.389 104.036L709.671 77.0927C711.389 73.3213 711.864 70.2284 711.093 67.8177C710.311 65.3713 708.582 63.5391 705.911 62.3213C703.261 61.1141 700.939 60.7605 698.95 61.2641C696.968 61.7427 695.182 62.6927 693.586 64.107Z" fill="#2BAE7A"/>
<path d="M793.718 156.461C795.829 158.207 797.654 159.35 799.193 159.889C800.754 160.443 802.125 160.682 803.311 160.603C804.496 160.528 805.593 160.361 806.6 160.111C807.546 159.932 808.282 159.821 808.804 159.771C809.343 159.739 809.936 159.893 810.582 160.232C811.164 160.457 811.986 160.975 813.043 161.789C814.1 162.6 815.132 163.425 816.143 164.257C817.168 165.107 817.857 165.725 818.211 166.111C818.804 166.632 819.129 167.093 819.182 167.493C819.254 167.871 819.043 168.418 818.546 169.128C817.871 170.139 817.014 171.271 815.975 172.525C814.939 173.814 814.018 174.893 813.204 175.757C812.95 176.025 812.696 176.236 812.45 176.382C812.218 176.511 811.814 176.689 811.236 176.918C810.571 177.139 809.461 177.339 807.904 177.521C806.343 177.703 804.371 177.593 801.982 177.186C799.614 176.796 796.882 175.878 793.786 174.436C790.689 172.993 787.286 170.739 783.579 167.671C779.607 164.382 776.325 160.803 773.732 156.928C771.121 153.039 769.521 148.818 768.936 144.264C768.329 139.696 768.993 134.75 770.925 129.432C772.879 124.132 776.404 118.4 781.5 112.243C787.146 105.418 793.143 100.593 799.482 97.7677C805.821 94.9427 812.207 94.0784 818.639 95.1712C825.071 96.2998 831.282 99.3391 837.271 104.296C841.471 107.771 844.482 110.986 846.304 113.932C848.129 116.914 849.225 119.536 849.593 121.8C849.946 124.046 850.043 125.825 849.889 127.132C849.832 127.628 849.739 128.032 849.607 128.343C849.496 128.668 849.239 129.096 848.836 129.625C848.364 130.389 847.55 131.411 846.389 132.696C845.264 133.975 844.2 135.05 843.196 135.914C842.546 136.468 842.011 136.728 841.589 136.696C841.382 136.718 841.096 136.657 840.732 136.514C840.386 136.353 839.925 136.039 839.354 135.568C838.443 134.814 837.429 133.928 836.318 132.911C835.239 131.889 834.446 131.089 833.932 130.507C833.343 129.825 832.971 129.25 832.825 128.771C832.711 128.293 832.679 127.689 832.732 126.964C832.832 125.796 832.646 124.203 832.175 122.182C831.739 120.153 830.064 117.939 827.157 115.528C823.071 112.146 818.4 110.939 813.146 111.911C807.907 112.861 802.371 116.861 796.536 123.914C790.732 130.928 787.818 137.275 787.789 142.957C787.75 148.657 789.725 153.157 793.718 156.461Z" fill="#2BAE7A"/>
<path d="M795.964 213.889C795.064 212.839 794.486 211.957 794.225 211.236C793.964 210.514 793.836 209.832 793.832 209.186C793.918 207.846 794.236 206.207 794.786 204.271C794.907 203.807 795.079 203.289 795.3 202.711C795.518 202.132 795.771 201.721 796.054 201.482C796.371 201.211 796.725 201.036 797.114 200.961C797.471 200.882 797.85 200.85 798.254 200.864C799.239 200.8 800.332 200.821 801.529 200.932C802.711 201.021 803.689 201.143 804.468 201.289C804.968 201.379 805.343 201.496 805.593 201.639C805.829 201.761 806.011 201.9 806.139 202.046C806.268 202.196 806.425 202.436 806.611 202.768C806.796 203.096 807.129 203.543 807.611 204.104C809.282 206.054 811.668 207.55 814.771 208.593C817.861 209.618 822.057 209.661 827.361 208.721C827.482 204.882 828.15 200.636 829.364 195.986C830.546 191.336 832.171 186.675 834.246 182.004C836.321 177.332 838.668 173 841.286 169.004C843.918 165.025 846.707 161.775 849.65 159.25C850.268 158.721 850.893 158.443 851.525 158.425C854.261 158.357 857.536 158.764 861.35 159.654C862 159.843 862.471 160.107 862.761 160.443C863.082 160.818 863.271 161.321 863.325 161.957C863.511 164.071 863.571 165.921 863.504 167.511C863.45 169.118 863.293 170.564 863.036 171.857C862.936 172.496 862.546 173.107 861.871 173.686L862.039 173.539C859.811 175.45 857.675 177.736 855.632 180.396C853.607 183.075 851.804 185.904 850.229 188.879C848.671 191.839 847.436 194.718 846.518 197.518C845.604 200.318 845.104 202.825 845.021 205.039L845.214 205.264C846.782 204.896 848.875 204.189 851.493 203.15C854.111 202.111 856.929 200.846 859.946 199.364C862.968 197.846 865.875 196.232 868.668 194.525C871.439 192.832 873.782 191.164 875.693 189.525L875.554 189.646C876.229 189.068 876.871 188.761 877.489 188.718C878.839 188.7 880.304 188.779 881.879 188.954C883.457 189.129 885.246 189.432 887.243 189.864C887.879 190.036 888.339 190.289 888.629 190.629C888.964 191.021 889.139 191.507 889.146 192.086C889.3 194.164 889.343 195.993 889.275 197.582C889.204 199.168 889.043 200.611 888.782 201.9C888.65 202.504 888.264 203.075 887.629 203.621C885.029 205.818 881.239 208.204 876.261 210.779C871.282 213.389 865.582 215.854 859.157 218.179C852.732 220.468 846.075 222.289 839.179 223.646C828.8 225.718 820.057 225.832 812.957 223.993C805.85 222.186 800.186 218.818 795.964 213.889ZM887.711 203.55L887.571 203.671L887.629 203.621C887.646 203.607 887.675 203.582 887.711 203.55ZM849.564 159.325L849.704 159.204L849.65 159.25L849.564 159.325Z" fill="#2BAE7A"/>
<path d="M922.839 239.978C925.221 243.728 926.654 246.646 927.136 248.739C927.596 250.843 927.8 252.221 927.743 252.871C927.721 253.85 927.486 254.746 927.036 255.553C926.829 256.007 926.393 256.636 925.732 257.436C925.064 258.271 924.257 259.075 923.318 259.846C922.654 260.503 922.107 260.864 921.682 260.928C921.268 261.014 920.618 260.889 919.729 260.55C918.739 260.096 917.761 259.55 916.796 258.903C915.832 258.261 915.096 257.703 914.596 257.232C914.168 256.832 913.904 256.489 913.807 256.2C913.711 255.911 913.679 255.446 913.714 254.811C913.729 254.1 913.664 253.146 913.521 251.95C913.357 250.768 912.764 249.375 911.743 247.775C910.446 245.736 908.711 244.103 906.532 242.886C904.346 241.7 901.893 241.171 899.164 241.296C896.404 241.414 893.514 242.432 890.493 244.35C885.954 247.236 883.204 250.661 882.246 254.632C881.257 258.593 882.032 262.575 884.571 266.571C885.868 268.611 887.164 270.171 888.464 271.246C889.739 272.336 890.85 273.136 891.789 273.653C892.539 274.053 892.929 274.478 892.95 274.928C892.996 275.368 892.857 275.821 892.543 276.286L886.914 284.686C886.329 285.557 885.636 285.732 884.839 285.214C883.493 284.432 881.589 282.953 879.125 280.775C876.668 278.564 874.189 275.493 871.689 271.557C866.675 263.664 864.768 256.018 865.971 248.614C867.175 241.214 871.964 234.853 880.336 229.536C885.689 226.136 890.957 224.307 896.146 224.05C901.346 223.814 906.239 225.05 910.818 227.753C915.379 230.468 919.386 234.543 922.839 239.978Z" fill="#2BAE7A"/>
<path d="M901.554 314.853L891.543 306.764C890.904 306.2 890.514 305.775 890.371 305.489C890.218 305.178 890.168 304.803 890.229 304.36C890.375 303.325 891.257 301.796 892.871 299.786C894.454 297.761 897.425 295.664 901.779 293.503L959.825 264.682C960.621 264.285 961.321 264.146 961.929 264.257C964.464 264.76 967.475 265.828 970.957 267.46C971.518 267.76 971.893 268.096 972.079 268.475C972.296 268.918 972.339 269.418 972.207 269.982C971.814 271.968 971.375 273.689 970.886 275.139C970.407 276.618 969.879 277.939 969.304 279.11C969.025 279.66 968.489 280.135 967.693 280.528L912.696 307.835C910.486 308.932 908.7 310.053 907.339 311.196C905.968 312.318 904.932 313.368 904.236 314.35C903.439 315.46 902.543 315.632 901.554 314.853Z" fill="#2BAE7A"/>
<path d="M912.357 360.771C910.289 354.828 909.454 349.318 909.857 344.239C910.236 339.171 912.025 334.707 915.229 330.85C918.439 327.014 923.25 323.982 929.657 321.75C939.282 318.4 947.411 318.339 954.05 321.568C960.704 324.764 965.45 330.453 968.296 338.632C970.146 343.946 970.768 348.771 970.164 353.111C969.536 357.457 967.879 361.182 965.196 364.286C962.529 367.357 959.039 369.643 954.729 371.143C950.536 372.603 947.236 372.55 944.836 370.982C942.436 369.414 940.518 366.568 939.082 362.443L931.182 339.757C927.643 341.303 925.346 343.593 924.286 346.625C923.204 349.668 923.375 353.239 924.804 357.339C925.932 360.578 927.325 363.007 928.986 364.625C930.621 366.25 931.854 367.35 932.679 367.921C933.425 368.418 933.921 369.096 934.171 369.95C934.407 370.625 934.614 371.636 934.796 372.986C934.946 374.318 934.886 375.725 934.618 377.203C934.461 378.25 933.986 378.914 933.193 379.189C932.725 379.35 932.043 379.486 931.136 379.589C930.614 379.668 929.832 379.743 928.786 379.821C927.771 379.914 926.8 379.9 925.871 379.775C925.404 379.703 924.911 379.496 924.4 379.153C923.668 378.625 922.621 377.721 921.264 376.443C919.896 375.143 918.439 373.246 916.893 370.753C915.321 368.268 913.811 364.943 912.357 360.771ZM941.982 335.878L947.982 353.111C948.607 354.903 949.746 355.514 951.4 354.939C953.893 354.071 955.732 352.557 956.911 350.396C958.068 348.243 958.1 345.593 957.007 342.446C955.814 339.021 953.846 336.896 951.104 336.075C948.375 335.221 945.336 335.157 941.982 335.878Z" fill="#2BAE7A"/>
<path d="M76.4607 688.768L50.3464 697.736C49.45 697.104 48.1179 695.879 46.3429 694.061C44.5464 692.25 42.5857 689.572 40.4536 686.025C38.3536 682.493 36.3179 677.857 34.3464 672.118C31.6857 664.372 30.6714 657.272 31.3 650.818C31.9429 644.336 34.625 638.614 39.3393 633.657C44.0214 628.682 51.1036 624.568 60.575 621.318C73.1536 617 83.9714 616.897 93.0322 621.011C102.089 625.129 108.596 632.95 112.554 644.479C114.446 649.986 115.414 654.557 115.464 658.193C115.543 661.843 115.164 664.764 114.325 666.961C113.5 669.122 112.682 670.722 111.864 671.757C111.557 672.15 111.264 672.447 110.996 672.643C110.732 672.864 110.289 673.093 109.668 673.336C108.868 673.739 107.639 674.189 105.982 674.679C104.357 675.186 102.889 675.547 101.579 675.761C100.736 675.893 100.143 675.836 99.7964 675.589C99.6072 675.497 99.3964 675.297 99.1607 674.986C98.9464 674.668 98.7214 674.157 98.4786 673.457C98.0857 672.314 97.6679 670.982 97.225 669.468C96.8072 667.943 96.5322 666.811 96.4107 666.068C96.2536 665.157 96.2429 664.482 96.3786 664.043C96.5322 663.575 96.8143 663.032 97.2322 662.422C97.6393 661.786 98.0929 660.979 98.5893 659.997C99.1036 658.986 99.4072 657.629 99.5036 655.929C99.5679 654.211 99.1429 652.036 98.2393 649.397C96.2357 643.561 92.5643 639.711 87.225 637.836C81.8643 635.972 75.225 636.4 67.3143 639.118C59.0286 641.964 53.3214 645.854 50.1893 650.789C47.075 655.693 46.625 661.379 48.8464 667.843C49.9607 671.086 51.0143 673.4 52.0107 674.779C53.0214 676.129 53.7214 676.982 54.1072 677.347L70.5929 671.686C71.5964 671.343 72.425 671.25 73.0857 671.418C75.9643 672.204 79.175 673.579 82.7179 675.543C83.3214 675.936 83.6929 676.329 83.8286 676.729C83.9714 677.15 83.9107 677.654 83.6464 678.239C82.8536 680.261 82.0286 682.004 81.175 683.472C80.3286 684.961 79.4679 686.289 78.5893 687.45C78.15 687.993 77.4393 688.432 76.4607 688.768Z" fill="#2BAE7A"/>
<path d="M109.954 714.929L106.289 716.864L106.393 717.061C114.568 715.897 120.354 718.532 123.757 724.968C124.196 725.797 124.507 726.497 124.696 727.064C124.886 727.636 125.004 728.047 125.057 728.3C125.136 728.872 124.882 729.314 124.289 729.625L112.379 735.918C111.354 736.461 110.757 736.022 110.593 734.6C110.561 734.114 110.436 733.457 110.218 732.622C110 731.786 109.539 730.704 108.839 729.372C107.043 725.968 104.396 723.975 100.907 723.393C97.4072 722.786 93.5072 723.618 89.2072 725.889L67.6393 737.282C66.6572 737.8 65.8607 737.957 65.25 737.75C64.6607 737.532 64.1072 736.932 63.5857 735.947L58.1929 725.736C57.675 724.754 57.4893 723.957 57.6429 723.35C57.8179 722.729 58.3929 722.157 59.375 721.639L100.839 699.732C101.646 699.307 102.343 699.147 102.932 699.257C104.239 699.461 105.621 699.804 107.079 700.289C108.546 700.743 110.2 701.389 112.039 702.232C112.375 702.389 112.643 702.582 112.846 702.811C113.061 703.061 113.221 703.282 113.325 703.479C113.568 703.936 113.646 704.482 113.561 705.111C112.864 708.968 112.039 711.843 111.089 713.743C110.857 714.257 110.482 714.65 109.954 714.929Z" fill="#2BAE7A"/>
<path d="M100.789 796.543C97.1321 791.425 94.7786 786.372 93.7357 781.39C92.6714 776.418 93.1321 771.632 95.1179 767.025C97.1179 762.44 100.879 758.175 106.4 754.232C114.689 748.307 122.475 745.957 129.75 747.186C137.032 748.379 143.193 752.5 148.229 759.547C151.5 764.125 153.457 768.579 154.096 772.911C154.718 777.261 154.179 781.3 152.479 785.032C150.786 788.729 148.079 791.907 144.368 794.561C140.754 797.143 137.575 798.022 134.829 797.193C132.082 796.365 129.439 794.175 126.9 790.622L112.936 771.079C109.975 773.557 108.414 776.404 108.25 779.611C108.068 782.836 109.239 786.215 111.764 789.747C113.757 792.536 115.779 794.475 117.829 795.557C119.857 796.654 121.35 797.365 122.304 797.682C123.161 797.95 123.829 798.457 124.304 799.211C124.721 799.793 125.204 800.704 125.761 801.947C126.279 803.182 126.618 804.547 126.779 806.043C126.921 807.093 126.654 807.861 125.968 808.347C125.568 808.632 124.946 808.954 124.111 809.311C123.632 809.532 122.904 809.825 121.921 810.193C120.975 810.565 120.039 810.825 119.111 810.975C118.639 811.04 118.111 810.975 117.525 810.79C116.671 810.49 115.414 809.918 113.75 809.075C112.071 808.211 110.139 806.804 107.954 804.847C105.746 802.904 103.361 800.14 100.789 796.543ZM122.204 764.315L132.814 779.161C133.918 780.707 135.186 780.972 136.611 779.95C138.757 778.415 140.096 776.443 140.618 774.04C141.121 771.647 140.407 769.097 138.468 766.386C136.357 763.436 133.871 761.95 131.011 761.936C128.154 761.886 125.218 762.679 122.204 764.315Z" fill="#2BAE7A"/>
<path d="M151.018 854.511C146.614 850.018 143.511 845.389 141.711 840.625C139.893 835.879 139.607 831.079 140.861 826.222C142.132 821.382 145.189 816.589 150.032 811.839C157.311 804.707 164.639 801.186 172.018 801.275C179.396 801.332 186.118 804.454 192.182 810.636C196.121 814.654 198.739 818.754 200.043 822.939C201.329 827.139 201.418 831.214 200.314 835.164C199.211 839.079 197.029 842.636 193.768 845.829C190.596 848.939 187.589 850.297 184.75 849.9C181.911 849.504 178.961 847.75 175.904 844.629L159.089 827.475C156.546 830.382 155.443 833.432 155.779 836.629C156.096 839.843 157.775 843 160.814 846.1C163.214 848.55 165.511 850.15 167.7 850.907C169.875 851.679 171.457 852.15 172.45 852.314C173.339 852.447 174.075 852.847 174.664 853.514C175.164 854.025 175.786 854.85 176.525 855.997C177.229 857.139 177.775 858.436 178.161 859.886C178.464 860.9 178.318 861.704 177.718 862.289C177.364 862.636 176.804 863.047 176.029 863.529C175.589 863.822 174.914 864.225 174.004 864.739C173.125 865.254 172.239 865.654 171.346 865.943C170.893 866.079 170.361 866.1 169.75 866.004C168.861 865.839 167.532 865.468 165.757 864.889C163.964 864.297 161.839 863.2 159.375 861.607C156.896 860.029 154.107 857.664 151.018 854.511ZM167.207 819.364L179.979 832.397C181.307 833.754 182.6 833.818 183.85 832.589C185.736 830.743 186.75 828.589 186.9 826.132C187.029 823.689 185.929 821.282 183.593 818.9C181.054 816.311 178.368 815.229 175.539 815.654C172.707 816.043 169.932 817.282 167.207 819.364Z" fill="#2BAE7A"/>
<path d="M253.639 890.639L234.111 916.847C233.446 917.736 232.796 918.222 232.154 918.297C231.529 918.354 230.768 918.05 229.879 917.386L220.618 910.486C219.729 909.822 219.218 909.182 219.096 908.568C218.986 907.932 219.261 907.168 219.925 906.279L237.725 882.386C240.143 879.139 241.229 876.257 240.986 873.736C240.721 871.2 239.411 869.054 237.057 867.3C234.682 865.532 232.479 864.689 230.446 864.775C228.429 864.839 226.489 865.397 224.632 866.443L203.868 894.314C203.204 895.204 202.554 895.689 201.911 895.764C201.286 895.822 200.525 895.518 199.636 894.854L190.375 887.954C189.486 887.289 188.975 886.65 188.85 886.032C188.739 885.397 189.014 884.632 189.682 883.743L217.7 846.139C218.246 845.407 218.807 844.964 219.382 844.807C220.65 844.429 222.046 844.147 223.568 843.957C225.086 843.736 226.857 843.607 228.882 843.579C229.5 843.575 229.986 843.707 230.343 843.975C230.679 844.225 230.943 844.654 231.139 845.261C231.65 847.179 232.029 848.922 232.271 850.489C232.5 852.043 232.596 853.564 232.568 855.05L232.775 855.204C233.775 854.932 235.121 854.736 236.818 854.614C238.489 854.475 240.496 854.757 242.836 855.454C245.193 856.132 247.804 857.539 250.675 859.679C253.486 861.772 255.746 864.332 257.457 867.361C259.136 870.397 259.793 873.872 259.432 877.786C259.05 881.686 257.118 885.972 253.639 890.639Z" fill="#2BAE7A"/>
<path d="M368.657 945.4L358.607 971.118C357.546 971.393 355.75 971.618 353.218 971.793C350.675 971.993 347.364 971.757 343.279 971.09C339.229 970.407 334.375 968.961 328.721 966.754C321.093 963.772 315.018 959.957 310.507 955.304C305.979 950.622 303.35 944.879 302.614 938.075C301.85 931.286 303.289 923.225 306.936 913.893C311.775 901.504 318.696 893.19 327.693 888.943C336.689 884.697 346.864 884.793 358.218 889.229C363.643 891.347 367.757 893.565 370.561 895.879C373.396 898.179 375.382 900.357 376.511 902.415C377.625 904.44 378.314 906.1 378.579 907.393C378.679 907.882 378.718 908.293 378.693 908.632C378.689 908.975 378.582 909.461 378.361 910.09C378.154 910.961 377.7 912.19 377 913.772C376.336 915.34 375.661 916.693 374.979 917.829C374.536 918.557 374.107 918.972 373.696 919.079C373.504 919.165 373.214 919.197 372.825 919.175C372.443 919.132 371.911 918.975 371.218 918.704C370.093 918.265 368.807 917.722 367.364 917.079C365.929 916.411 364.889 915.886 364.243 915.504C363.446 915.032 362.925 914.604 362.682 914.218C362.421 913.8 362.193 913.232 361.993 912.518C361.771 911.797 361.45 910.929 361.025 909.915C360.586 908.868 359.746 907.761 358.511 906.586C357.243 905.429 355.307 904.34 352.711 903.325C346.964 901.079 341.654 901.39 336.771 904.254C331.882 907.14 327.914 912.475 324.871 920.265C321.682 928.422 320.961 935.293 322.7 940.875C324.425 946.425 328.471 950.443 334.839 952.929C338.032 954.179 340.479 954.868 342.175 955C343.857 955.1 344.961 955.122 345.489 955.065L351.832 938.829C352.218 937.84 352.686 937.15 353.239 936.754C355.7 935.065 358.825 933.507 362.618 932.075C363.307 931.868 363.85 931.84 364.239 931.993C364.654 932.154 364.996 932.529 365.271 933.111C366.3 935.022 367.096 936.779 367.664 938.379C368.254 939.986 368.707 941.504 369.029 942.922C369.157 943.607 369.032 944.432 368.657 945.4Z" fill="#2BAE7A"/>
<path d="M410.268 936.757L409.375 940.804L409.593 940.854C413.989 933.864 419.743 931.154 426.85 932.718C427.764 932.922 428.504 933.132 429.057 933.357C429.614 933.582 430.004 933.757 430.232 933.879C430.721 934.189 430.893 934.668 430.746 935.322L427.846 948.475C427.596 949.607 426.879 949.779 425.689 948.986C425.296 948.697 424.714 948.368 423.936 947.993C423.161 947.618 422.036 947.271 420.564 946.946C416.804 946.118 413.575 946.846 410.875 949.132C408.15 951.411 406.264 954.925 405.214 959.672L399.964 983.489C399.725 984.575 399.329 985.282 398.775 985.618C398.229 985.925 397.411 985.961 396.329 985.722L385.05 983.236C383.964 982.997 383.239 982.622 382.871 982.111C382.511 981.575 382.446 980.768 382.689 979.682L392.782 933.886C392.979 932.993 393.307 932.361 393.771 931.982C394.771 931.114 395.929 930.286 397.239 929.489C398.532 928.664 400.096 927.822 401.929 926.957C402.264 926.804 402.586 926.721 402.893 926.718C403.221 926.714 403.496 926.736 403.711 926.782C404.218 926.893 404.682 927.186 405.111 927.661C407.604 930.686 409.264 933.175 410.096 935.125C410.339 935.632 410.396 936.175 410.268 936.757Z" fill="#2BAE7A"/>
<path d="M466.25 996.239C456.875 995.529 449.636 992.468 444.525 987.057C439.439 981.675 437.271 974.047 438.018 964.182C438.782 954.072 442.2 946.718 448.261 942.132C454.296 937.568 462.064 935.643 471.564 936.361C480.718 937.054 487.85 940.068 492.964 945.407C498.1 950.772 500.307 958.25 499.579 967.843C498.821 977.832 495.489 985.25 489.579 990.1C483.696 994.925 475.918 996.972 466.25 996.239ZM467.825 982.772C471.911 983.082 475.093 982.036 477.379 979.636C479.636 977.257 481 972.982 481.468 966.807C481.914 960.925 481.182 956.7 479.275 954.132C477.339 951.586 474.318 950.157 470.207 949.843C466.221 949.539 462.986 950.597 460.504 953.007C458.021 955.418 456.557 959.525 456.118 965.332C455.661 971.386 456.418 975.725 458.4 978.347C460.404 980.972 463.546 982.447 467.825 982.772Z" fill="#2BAE7A"/>
<path d="M532.543 990.386C531.261 988.854 529.825 986.668 528.236 983.829C526.646 980.989 525.039 977.818 523.414 974.311C521.768 970.807 520.232 967.293 518.804 963.764C517.379 960.236 516.182 956.989 515.225 954.025C514.261 951.036 513.675 948.672 513.461 946.932C513.371 946.197 513.493 945.561 513.825 945.022C515.282 942.704 517.45 940.204 520.325 937.514C520.818 937.082 521.286 936.836 521.729 936.782C522.218 936.722 522.743 936.843 523.3 937.15C525.164 938.164 526.739 939.139 528.021 940.075C529.329 941.007 530.45 941.939 531.386 942.872C531.861 943.311 532.154 943.972 532.261 944.854L532.225 944.557C532.507 946.861 532.968 949.5 533.607 952.482C534.268 955.436 535.05 958.472 535.954 961.589C536.857 964.711 537.843 967.672 538.904 970.475C539.993 973.275 541.104 975.661 542.243 977.636L542.575 977.597C543.3 975.393 543.986 972.564 544.629 969.104C545.3 965.639 545.896 961.989 546.418 958.147C546.943 954.304 547.393 950.682 547.771 947.279C548.154 943.9 548.396 941.225 548.504 939.247C548.571 937.772 549.029 936.732 549.875 936.132C550.725 935.557 551.968 935.168 553.611 934.968L560.039 934.179C561.9 933.95 563.257 934.057 564.107 934.504C564.986 934.968 565.589 935.839 565.918 937.114C566.457 939.086 567.325 941.714 568.525 945C569.721 948.282 571.043 951.764 572.489 955.439C573.932 959.089 575.354 962.497 576.761 965.654C578.171 968.836 579.325 971.282 580.229 972.986L580.636 972.936C581.439 970.35 582.104 967.064 582.632 963.072C583.161 959.079 583.482 954.889 583.593 950.5C583.679 946.139 583.496 942.111 583.043 938.411L583.071 938.632C582.964 937.75 583.075 937.039 583.407 936.5C584.114 935.368 584.979 934.197 585.996 932.979C587.014 931.761 588.271 930.439 589.761 929.011C590.229 928.582 590.686 928.339 591.125 928.286C591.639 928.222 592.139 928.347 592.625 928.661C594.439 929.682 595.989 930.661 597.275 931.597C598.557 932.532 599.668 933.468 600.6 934.397C601.029 934.843 601.289 935.468 601.389 936.275C601.586 938.089 601.539 940.547 601.246 943.639C600.954 946.732 600.479 950.147 599.818 953.882C599.157 957.618 598.396 961.354 597.536 965.086C596.654 968.847 595.725 972.318 594.743 975.497C593.761 978.65 592.804 981.189 591.875 983.118C591.254 984.336 590.711 985.286 590.246 985.968C589.754 986.625 589.129 987.086 588.364 987.354C587.579 987.65 586.418 987.889 584.875 988.079L578.593 988.847C576.854 989.061 575.464 988.982 574.425 988.611C573.357 988.218 572.304 987.229 571.264 985.643C570.629 984.7 569.786 983.104 568.739 980.843C567.718 978.582 566.643 976.104 565.514 973.407C564.411 970.682 563.404 968.147 562.496 965.797C561.607 963.418 561.007 961.664 560.696 960.536C560.364 959.457 560.004 958.136 559.611 956.568C559.196 955.004 558.893 953.761 558.707 952.839L558.45 952.868C558.514 953.804 558.546 955.068 558.543 956.661C558.539 958.254 558.5 959.65 558.421 960.854C558.329 961.932 558.111 963.589 557.761 965.818C557.439 968.068 557.021 970.543 556.507 973.243C555.996 975.964 555.439 978.618 554.836 981.204C554.236 983.814 553.639 986.036 553.043 987.875C552.418 989.668 551.611 990.886 550.618 991.529C549.625 992.147 547.989 992.597 545.711 992.875L539.246 993.664C537.436 993.886 536.175 993.754 535.468 993.272C534.739 992.814 533.764 991.85 532.543 990.386ZM513.489 947.15L513.45 946.822L513.461 946.932C513.471 947.007 513.479 947.079 513.489 947.15ZM601.375 936.164L601.404 936.386L601.389 936.275C601.382 936.225 601.379 936.189 601.375 936.164Z" fill="#2BAE7A"/>
<path d="M653.132 973.571C641.193 977.221 633.329 972.854 629.539 960.468L621.864 935.375L615.846 937.214C614.761 937.546 613.95 937.55 613.411 937.225C612.85 936.907 612.407 936.218 612.082 935.154L610.068 928.571C609.736 927.486 609.718 926.664 610.014 926.111C610.279 925.539 610.954 925.089 612.036 924.757L618.054 922.914L615.414 914.279C615.154 913.429 615.143 912.711 615.371 912.125C616.261 909.711 617.804 906.918 620.007 903.739C620.393 903.232 620.779 902.925 621.154 902.807C621.604 902.671 622.093 902.714 622.629 902.939C624.521 903.65 626.15 904.364 627.504 905.086C628.882 905.8 630.1 906.536 631.157 907.296C631.657 907.661 632.036 908.268 632.296 909.114L634.936 917.75L644.386 914.861C645.471 914.529 646.282 914.525 646.821 914.854C647.375 915.15 647.818 915.839 648.154 916.921L650.168 923.507C650.493 924.568 650.511 925.389 650.221 925.964C649.957 926.536 649.282 926.986 648.196 927.321L638.746 930.211L645.525 952.368C647.271 958.079 650.211 960.3 654.339 959.039C654.975 958.843 655.55 958.604 656.054 958.318C656.554 958.011 656.971 957.729 657.304 957.471C657.971 956.957 658.472 956.689 658.8 956.668C659.129 956.646 659.518 956.95 659.972 957.586L665.629 964.95C666.232 965.746 666.214 966.446 665.575 967.057C665.111 967.482 663.957 968.35 662.118 969.664C660.282 971 657.286 972.304 653.132 973.571Z" fill="#2BAE7A"/>
<path d="M686.604 918.329L701.018 949.954C701.479 950.965 701.586 951.768 701.343 952.368C701.089 952.943 700.457 953.461 699.45 953.922L688.943 958.711C687.932 959.172 687.129 959.307 686.525 959.122C685.914 958.911 685.379 958.3 684.918 957.29L653.511 888.386C653.143 887.579 653.025 886.872 653.157 886.268C653.746 883.75 654.911 880.779 656.657 877.35C656.975 876.8 657.325 876.436 657.707 876.261C658.157 876.057 658.661 876.029 659.214 876.186C661.186 876.643 662.889 877.14 664.329 877.675C665.789 878.204 667.093 878.775 668.243 879.39C668.786 879.686 669.239 880.236 669.607 881.047L680.861 905.732L681.064 905.64C681.364 904.336 681.879 902.907 682.607 901.357C683.336 899.804 684.547 898.236 686.239 896.65C687.907 895.075 690.293 893.582 693.389 892.172C696.511 890.75 699.8 890.022 703.257 889.993C706.747 889.975 710.096 891.079 713.307 893.304C716.539 895.518 719.364 899.275 721.782 904.572L735.336 934.311C735.796 935.322 735.904 936.125 735.664 936.722C735.411 937.297 734.779 937.815 733.768 938.279L723.261 943.068C722.25 943.529 721.446 943.665 720.843 943.479C720.232 943.268 719.696 942.657 719.236 941.647L706.957 914.704C705.239 910.932 703.214 908.547 700.886 907.547C698.525 906.536 696.011 906.636 693.339 907.854C690.689 909.061 688.9 910.582 687.975 912.415C687.039 914.225 686.579 916.197 686.604 918.329Z" fill="#2BAE7A"/>
<path d="M813.614 865.336C815.725 863.589 817.189 862.011 818.004 860.597C818.839 859.168 819.332 857.864 819.475 856.689C819.622 855.511 819.664 854.404 819.607 853.361C819.611 852.397 819.636 851.654 819.686 851.136C819.754 850.6 820.018 850.047 820.472 849.475C820.8 848.947 821.464 848.236 822.461 847.35C823.457 846.464 824.457 845.604 825.464 844.768C826.489 843.918 827.229 843.357 827.675 843.082C828.3 842.597 828.811 842.364 829.211 842.386C829.597 842.386 830.093 842.697 830.704 843.314C831.568 844.168 832.522 845.222 833.557 846.479C834.629 847.736 835.514 848.847 836.214 849.804C836.432 850.104 836.589 850.389 836.686 850.664C836.768 850.918 836.868 851.347 836.986 851.954C837.079 852.647 837.068 853.775 836.954 855.343C836.839 856.911 836.361 858.829 835.518 861.093C834.693 863.347 833.282 865.857 831.282 868.632C829.286 871.407 826.432 874.325 822.729 877.397C818.757 880.686 814.625 883.239 810.332 885.057C806.022 886.893 801.575 887.675 796.993 887.4C792.389 887.139 787.657 885.564 782.797 882.668C777.954 879.757 772.986 875.222 767.889 869.064C762.243 862.239 758.625 855.45 757.036 848.693C755.447 841.936 755.793 835.5 758.068 829.389C760.379 823.282 764.529 817.75 770.518 812.793C774.718 809.318 778.439 806.961 781.675 805.725C784.947 804.493 787.725 803.904 790.014 803.961C792.286 804.036 794.05 804.272 795.311 804.672C795.786 804.822 796.164 804.989 796.447 805.172C796.747 805.339 797.118 805.672 797.561 806.172C798.222 806.779 799.075 807.768 800.122 809.147C801.168 810.489 802.025 811.736 802.686 812.886C803.107 813.625 803.264 814.204 803.154 814.611C803.132 814.818 803.021 815.089 802.814 815.422C802.593 815.732 802.197 816.125 801.625 816.597C800.714 817.35 799.654 818.182 798.447 819.082C797.243 819.95 796.307 820.579 795.639 820.975C794.861 821.429 794.222 821.682 793.729 821.739C793.236 821.764 792.639 821.679 791.936 821.493C790.807 821.175 789.207 821.061 787.132 821.143C785.061 821.193 782.568 822.422 779.661 824.829C775.575 828.211 773.514 832.572 773.482 837.914C773.436 843.239 776.329 849.425 782.168 856.479C787.972 863.493 793.664 867.543 799.239 868.632C804.832 869.739 809.622 868.639 813.614 865.336Z" fill="#2BAE7A"/>
<path d="M881.318 857.018C880.418 858.068 879.632 858.775 878.961 859.139C878.289 859.507 877.632 859.739 876.993 859.843C875.654 859.964 873.986 859.9 871.989 859.65C871.514 859.6 870.971 859.511 870.368 859.382C869.764 859.254 869.321 859.068 869.039 858.829C868.721 858.557 868.493 858.232 868.361 857.857C868.229 857.518 868.139 857.146 868.093 856.75C867.879 855.786 867.736 854.704 867.657 853.5C867.568 852.318 867.532 851.332 867.561 850.543C867.575 850.036 867.632 849.646 867.736 849.375C867.821 849.125 867.929 848.922 868.057 848.772C868.186 848.622 868.4 848.429 868.693 848.196C868.989 847.964 869.379 847.568 869.861 847.007C871.532 845.057 872.643 842.472 873.2 839.243C873.739 836.032 873.139 831.879 871.404 826.779C867.589 827.246 863.293 827.236 858.511 826.75C853.732 826.297 848.879 825.4 843.946 824.064C839.014 822.729 834.371 821.075 830.021 819.1C825.686 817.107 822.046 814.85 819.104 812.329C818.486 811.8 818.118 811.225 818 810.6C817.514 807.907 817.418 804.607 817.711 800.7C817.8 800.029 817.989 799.525 818.275 799.186C818.596 798.811 819.064 798.546 819.686 798.396C821.746 797.889 823.568 797.547 825.146 797.372C826.743 797.179 828.196 797.111 829.514 797.168C830.161 797.171 830.821 797.461 831.496 798.039L831.329 797.893C833.557 799.804 836.143 801.564 839.082 803.175C842.039 804.768 845.111 806.114 848.293 807.218C851.457 808.304 854.493 809.086 857.4 809.564C860.307 810.039 862.861 810.15 865.061 809.893L865.254 809.668C864.65 808.175 863.632 806.214 862.204 803.786C860.775 801.357 859.096 798.768 857.168 796.011C855.207 793.257 853.168 790.632 851.05 788.132C848.95 785.65 846.946 783.593 845.036 781.957L845.175 782.075C844.5 781.496 844.096 780.907 843.964 780.307C843.739 778.979 843.593 777.518 843.521 775.929C843.45 774.343 843.479 772.529 843.604 770.489C843.675 769.836 843.857 769.343 844.143 769.004C844.479 768.611 844.932 768.364 845.504 768.271C847.532 767.8 849.336 767.479 850.918 767.304C852.496 767.129 853.946 767.071 855.261 767.125C855.875 767.164 856.504 767.457 857.139 768.004C859.707 770.239 862.646 773.618 865.95 778.139C869.289 782.661 872.6 787.918 875.882 793.914C879.125 799.911 881.946 806.214 884.343 812.818C887.979 822.757 889.429 831.379 888.696 838.679C888 845.979 885.539 852.089 881.318 857.018ZM857.054 767.932L857.196 768.054L857.139 768.004C857.121 767.989 857.093 767.964 857.054 767.932ZM819.189 812.4L819.046 812.279L819.104 812.329L819.189 812.4Z" fill="#2BAE7A"/>
<path d="M873.204 726.239C875.586 722.489 877.621 719.954 879.311 718.632C881.021 717.322 882.182 716.554 882.793 716.325C883.689 715.929 884.596 715.761 885.521 715.825C886.021 715.822 886.775 715.947 887.779 716.207C888.818 716.457 889.886 716.847 890.986 717.368C891.861 717.689 892.421 718.032 892.664 718.389C892.918 718.725 893.079 719.368 893.146 720.318C893.157 721.407 893.075 722.525 892.904 723.672C892.729 724.818 892.539 725.718 892.325 726.375C892.146 726.932 891.946 727.318 891.725 727.529C891.504 727.739 891.096 727.964 890.507 728.2C889.857 728.489 889.021 728.95 888 729.589C887 730.239 885.993 731.368 884.975 732.975C883.679 735.014 882.939 737.282 882.764 739.768C882.621 742.25 883.186 744.697 884.454 747.114C885.732 749.564 887.882 751.75 890.904 753.668C895.443 756.554 899.714 757.586 903.714 756.764C907.721 755.979 910.996 753.586 913.536 749.586C914.832 747.547 915.693 745.707 916.114 744.075C916.557 742.457 916.811 741.114 916.879 740.047C916.921 739.197 917.143 738.664 917.543 738.45C917.921 738.222 918.389 738.154 918.943 738.243L928.936 739.768C929.971 739.929 930.425 740.482 930.296 741.425C930.161 742.975 929.629 745.329 928.707 748.482C927.75 751.647 926.021 755.197 923.521 759.132C918.507 767.025 912.393 772 905.182 774.054C897.971 776.107 890.179 774.475 881.807 769.157C876.454 765.757 872.561 761.761 870.125 757.175C867.704 752.568 866.743 747.614 867.243 742.318C867.764 737.036 869.75 731.675 873.204 726.239Z" fill="#2BAE7A"/>
<path d="M946.543 705.239L946.15 718.1C946.086 718.95 945.982 719.518 945.839 719.807C945.686 720.118 945.414 720.382 945.029 720.604C944.114 721.114 942.364 721.332 939.786 721.264C937.214 721.229 933.754 720.129 929.396 717.964L871.35 689.147C870.554 688.75 870.018 688.279 869.739 687.725C868.607 685.4 867.639 682.357 866.836 678.597C866.736 677.968 866.779 677.464 866.964 677.089C867.182 676.647 867.557 676.311 868.086 676.079C869.904 675.189 871.539 674.504 872.997 674.011C874.464 673.5 875.836 673.122 877.114 672.875C877.722 672.764 878.422 672.904 879.218 673.3L934.214 700.607C936.425 701.704 938.397 702.45 940.132 702.839C941.854 703.254 943.318 703.443 944.518 703.407C945.886 703.371 946.561 703.982 946.543 705.239Z" fill="#2BAE7A"/>
<path d="M970.354 657.175C968.286 663.118 965.518 667.954 962.05 671.682C958.607 675.422 954.432 677.807 949.525 678.847C944.625 679.857 938.971 679.25 932.564 677.018C922.939 673.668 916.529 668.668 913.332 662.015C910.104 655.379 909.914 647.968 912.761 639.79C914.611 634.475 917.118 630.307 920.286 627.282C923.479 624.265 927.089 622.375 931.118 621.607C935.114 620.857 939.271 621.232 943.582 622.732C947.775 624.193 950.329 626.282 951.236 629.004C952.143 631.725 951.879 635.147 950.446 639.272L942.55 661.957C946.282 662.943 949.507 662.575 952.221 660.854C954.961 659.143 957.043 656.236 958.468 652.136C959.596 648.897 960.011 646.129 959.714 643.829C959.439 641.54 959.157 639.911 958.864 638.95C958.586 638.097 958.618 637.257 958.957 636.432C959.193 635.757 959.657 634.832 960.354 633.665C961.064 632.525 961.982 631.461 963.111 630.472C963.886 629.747 964.668 629.525 965.461 629.8C965.929 629.961 966.546 630.282 967.321 630.761C967.779 631.025 968.439 631.45 969.304 632.04C970.154 632.597 970.907 633.211 971.564 633.886C971.886 634.232 972.143 634.7 972.329 635.286C972.575 636.154 972.832 637.515 973.107 639.361C973.371 641.229 973.336 643.622 973 646.532C972.689 649.454 971.807 653 970.354 657.175ZM931.675 658.29L937.675 641.057C938.3 639.265 937.786 638.079 936.129 637.5C933.636 636.632 931.254 636.679 928.989 637.64C926.746 638.607 925.075 640.665 923.979 643.815C922.786 647.24 923.011 650.125 924.646 652.472C926.254 654.832 928.596 656.772 931.675 658.29Z" fill="#2BAE7A"/>
</g>
<defs>
<clipPath id="clip0_140_297">
<rect width="999" height="999" fill="white"/>
</clipPath>
<clipPath id="clip1_140_297">
<rect width="470.933" height="353.275" fill="white" transform="translate(264.033 322.863)"/>
</clipPath>
<clipPath id="clip2_140_297">
<rect width="470.933" height="353.275" fill="white" transform="translate(264.033 322.863)"/>
</clipPath>
</defs>
</svg>
